HIERARCHY
ROOT Hips
{
	OFFSET 190.886993 90.533302 318.949097
	CHANNELS 6 Xposition Yposition Zposition Zrotation Yrotation Xrotation 
	JOINT LeftUpLeg
	{
		OFFSET 0.103459 1.857839 10.548500
		CHANNELS 3 Zrotation Yrotation Xrotation
		JOINT LeftLeg
		{
			OFFSET 43.500004 -0.000053 -0.000011
			CHANNELS 3 Zrotation Yrotation Xrotation
			JOINT LeftFoot
			{
				OFFSET 42.372192 0.000015 -0.000008
				CHANNELS 3 Zrotation Yrotation Xrotation
				JOINT LeftToe
				{
					OFFSET 17.300007 0.000002 0.000013
					CHANNELS 3 Zrotation Yrotation Xrotation
					End Site
					{
						OFFSET 0.000000 0.000000 0.000000
					}
				}
			}
		}
	}
	JOINT RightUpLeg
	{
		OFFSET 0.103460 1.857826 -10.548500
		CHANNELS 3 Zrotation Yrotation Xrotation
		JOINT RightLeg
		{
			OFFSET 43.500046 -0.000019 0.000011
			CHANNELS 3 Zrotation Yrotation Xrotation
			JOINT RightFoot
			{
				OFFSET 42.372261 0.000004 0.000012
				CHANNELS 3 Zrotation Yrotation Xrotation
				JOINT RightToe
				{
					OFFSET 17.299995 -0.000004 0.000006
					CHANNELS 3 Zrotation Yrotation Xrotation
					End Site
					{
						OFFSET 0.000000 0.000000 0.000000
					}
				}
			}
		}
	}
	JOINT Spine
	{
		OFFSET 6.901963 -2.603745 -0.000005
		CHANNELS 3 Zrotation Yrotation Xrotation
		JOINT Spine1
		{
			OFFSET 12.588102 0.000012 0.000012
			CHANNELS 3 Zrotation Yrotation Xrotation
			JOINT Spine2
			{
				OFFSET 12.343202 0.000010 -0.000009
				CHANNELS 3 Zrotation Yrotation Xrotation
				JOINT Neck
				{
					OFFSET 25.832901 -0.000008 0.000006
					CHANNELS 3 Zrotation Yrotation Xrotation
					JOINT Head
					{
						OFFSET 11.766603 0.000007 -0.000001
						CHANNELS 3 Zrotation Yrotation Xrotation
						End Site
						{
							OFFSET 0.000000 0.000000 0.000000
						}
					}
				}
				JOINT LeftShoulder
				{
					OFFSET 19.745903 -1.480391 6.000108
					CHANNELS 3 Zrotation Yrotation Xrotation
					JOINT LeftArm
					{
						OFFSET 11.284125 -0.000031 -0.000021
						CHANNELS 3 Zrotation Yrotation Xrotation
						JOINT LeftForeArm
						{
							OFFSET 33.000046 0.000024 0.000034
							CHANNELS 3 Zrotation Yrotation Xrotation
							JOINT LeftHand
							{
								OFFSET 25.200014 0.000020 0.000007
								CHANNELS 3 Zrotation Yrotation Xrotation
								End Site
								{
									OFFSET 0.000000 0.000000 0.000000
								}
							}
						}
					}
				}
				JOINT RightShoulder
				{
					OFFSET 19.746098 -1.480371 -6.000075
					CHANNELS 3 Zrotation Yrotation Xrotation
					JOINT RightArm
					{
						OFFSET 11.284128 -0.000021 -0.000009
						CHANNELS 3 Zrotation Yrotation Xrotation
						JOINT RightForeArm
						{
							OFFSET 33.000095 0.000034 0.000006
							CHANNELS 3 Zrotation Yrotation Xrotation
							JOINT RightHand
							{
								OFFSET 25.199781 0.000147 0.000427
								CHANNELS 3 Zrotation Yrotation Xrotation
								End Site
								{
									OFFSET 0.000000 0.000000 0.000000
								}
							}
						}
					}
				}
			}
		}
	}
}
MOTION
Frames: 5
Frame Time: 0.033333
102.406700 89.653313 250.402405 85.789327 3.944889 175.164982 166.212503 5.150299 172.470500 -26.614983 1.239475 -8.736282 90.388791 6.996442 8.202879 21.454551 0.003094 0.000001 149.095571 7.611297 -171.312947 -46.622554 -5.972836 5.159481 74.964700 0.886212 15.171305 21.454562 -0.003106 -0.000016 6.378664 0.494964 -0.621165 2.739198 1.004131 -1.230733 2.421113 0.996818 -1.236773 7.033921 3.048925 15.302682 -19.885471 -16.933420 23.042002 -147.899782 -81.337731 -34.085325 -14.730218 58.658471 36.082831 -46.988003 -15.879367 1.714107 10.793457 -0.984640 0.090176 -179.201050 77.447112 2.256956 17.113478 -57.405411 -24.143759 -60.148893 17.376852 -2.298813 3.072620 0.534039 -12.718045 
103.969200 89.739670 252.055695 85.010167 3.375709 -177.470212 166.521870 5.351898 175.646279 -26.251684 0.860306 -6.060476 90.558937 5.235336 8.240294 21.454557 0.003093 -0.000000 151.291832 9.759996 -174.243194 -34.047328 -4.907732 2.163997 74.430388 3.632009 17.039181 21.454558 -0.003110 -0.000017 6.410953 0.315868 -0.697978 2.805171 0.648165 -1.388273 2.487158 0.639908 -1.392159 7.035435 3.815172 16.642070 -22.093036 -17.426792 25.184132 -150.953669 -81.734968 -30.979634 -19.304112 58.843412 32.038023 -52.385352 -16.958844 1.959913 8.145859 -1.536585 1.424807 -179.275021 77.625872 2.185067 20.741375 -57.910954 -27.965839 -59.588237 17.103463 -2.258907 3.670509 -0.368344 -12.100138 
105.646004 89.710007 253.546707 84.218118 2.774915 -170.219174 166.468813 5.469101 179.157843 -26.596207 0.008037 -3.664997 91.008903 3.656147 8.338442 21.454551 0.003093 0.000000 154.375376 12.617097 -179.702058 -21.633178 -2.312050 -0.503071 73.656487 6.280025 19.063321 21.454557 -0.003109 -0.000018 6.474336 0.081022 -0.634474 2.934856 0.177753 -1.266729 2.616825 0.170235 -1.267778 7.255130 4.269104 17.410434 -24.179693 -17.477570 26.504448 -152.449850 -82.430862 -29.446407 -23.706820 59.469200 27.880579 -57.754891 -17.071353 2.156501 6.353857 -3.528627 4.564525 -179.082014 77.637818 2.383076 23.574171 -57.927647 -32.149209 -58.498685 16.997680 -2.210917 3.653200 0.057413 -10.216288 
107.387703 89.401894 255.108994 83.433554 2.370048 -163.356323 165.405407 5.143999 -178.652750 -28.824853 -0.688545 -0.821417 92.216897 1.711065 8.382149 21.454555 0.003088 -0.000001 157.078450 14.798098 175.643383 -13.189987 -1.837954 -0.781261 74.063061 8.712453 26.455107 21.454558 -0.003105 -0.000016 6.579259 -0.128524 -0.452594 3.146664 -0.244952 -0.908464 2.828608 -0.250298 -0.906962 7.236725 4.086577 17.706448 -25.561035 -16.840543 26.791190 -151.783811 -82.600312 -30.115786 -27.732163 59.947136 24.335102 -62.861223 -16.594520 2.316283 5.003687 -4.437041 7.324262 -179.847063 77.633781 1.602035 24.895360 -57.126927 -35.711087 -57.624366 16.524239 -2.146465 3.857229 0.875182 -8.821182 
108.965797 89.208191 256.587891 83.250772 3.277533 -157.203921 163.754004 3.171798 -176.026228 -31.867634 -2.184996 1.643079 93.353496 0.057129 8.543351 21.454551 0.003092 -0.000000 158.363987 14.621507 176.705245 -12.824609 -2.186723 0.117874 73.750771 7.469900 24.392361 21.454560 -0.003110 -0.000018 6.729227 -0.048589 -0.105800 3.445662 -0.094112 -0.212978 3.127579 -0.095256 -0.212403 7.473432 3.337763 17.371258 -26.807427 -15.821433 26.117076 -153.625462 -82.698619 -28.250593 -29.241334 60.560330 22.060111 -67.595889 -15.649538 2.438640 3.641023 -4.060658 10.048192 176.416997 77.931919 -2.199949 24.580627 -56.170765 -39.324350 -55.780219 16.341491 -2.067374 3.900634 1.671506 -6.289509 
